<svg xmlns="http://www.w3.org/2000/svg" viewBox="0 0 24 24" fill="none" stroke="currentColor" stroke-width="2" stroke-linecap="round" stroke-linejoin="round">
  <circle cx="12" cy="12" r="10"></circle>
  <path d="M16.5 7.5a1.5 1.5 0 1 0 0-3 1.5 1.5 0 0 0 0 3z"></path>
  <path d="M18 10.5c0-.83-.67-1.5-1.5-1.5-.39 0-.74.15-1 .39-.95-.66-2.24-1.07-3.66-1.12l.62-2.93 2.04.43c.04.84.74 1.5 1.58 1.5.88 0 1.6-.72 1.6-1.6 0-.88-.72-1.6-1.6-1.6-.62 0-1.14.35-1.41.85l-2.29-.48c-.16-.03-.33.06-.39.22l-.69 3.24c-1.44.05-2.75.47-3.71 1.14-.26-.25-.61-.4-1-.4-.83 0-1.5.67-1.5 1.5 0 .6.35 1.11.85 1.35-.02.1-.03.2-.03.3 0 2.34 2.73 4.25 6.09 4.25s6.09-1.91 6.09-4.25c0-.1-.01-.2-.03-.3.5-.24.85-.75.85-1.35z"></path>
  <path d="M9.5 13.5a1.5 1.5 0 1 0 0-3 1.5 1.5 0 0 0 0 3z"></path>
  <path d="M14.5 13.5a1.5 1.5 0 1 0 0-3 1.5 1.5 0 0 0 0 3z"></path>
  <path d="M12 15.5c-1.2 0-2.25-.5-3-1.5"></path>
  <path d="M15 14c-.75 1-1.8 1.5-3 1.5"></path>
</svg>
